<svg width="121" height="32" viewBox="0 0 121 32" fill="none" xmlns="http://www.w3.org/2000/svg">
<path d="M40.8676 21.8182V10.7553H44.3661V13.0735C44.549 12.2778 44.9225 11.6657 45.4865 11.2373C46.0658 10.7935 46.7061 10.5717 47.4073 10.5717C47.7731 10.5717 48.078 10.6023 48.3219 10.6635V13.9227C47.9103 13.8768 47.5597 13.8538 47.2701 13.8538C45.3341 13.8538 44.3661 15.0856 44.3661 17.5491V21.8182H40.8676ZM58.4579 20.5099C57.3603 21.6116 55.8816 22.1625 54.0219 22.1625C52.1621 22.1625 50.6757 21.6116 49.563 20.5099C48.4501 19.4082 47.8938 18.0005 47.8938 16.2868C47.8938 14.573 48.4501 13.1729 49.563 12.0865C50.6757 10.9848 52.1621 10.434 54.0219 10.434C55.8816 10.434 57.3603 10.9848 58.4579 12.0865C59.5707 13.1729 60.1271 14.573 60.1271 16.2868C60.1271 18.0005 59.5707 19.4082 58.4579 20.5099ZM54.0219 19.1787C54.8298 19.1787 55.47 18.9109 55.9426 18.3753C56.4152 17.8399 56.6515 17.1436 56.6515 16.2868C56.6515 15.4299 56.4152 14.7337 55.9426 14.1981C55.47 13.6625 54.8298 13.3948 54.0219 13.3948C53.1987 13.3948 52.5508 13.6625 52.0783 14.1981C51.6209 14.7337 51.3923 15.4299 51.3923 16.2868C51.3923 17.1436 51.6209 17.8399 52.0783 18.3753C52.5508 18.9109 53.1987 19.1787 54.0219 19.1787ZM66.1766 22.1625C64.3778 22.1625 62.9449 21.6269 61.8778 20.5559C60.8107 19.4695 60.2772 18.0464 60.2772 16.2868C60.2772 14.5271 60.8107 13.1117 61.8778 12.0406C62.9449 10.9695 64.3778 10.434 66.1766 10.434C67.8077 10.434 69.134 10.8395 70.1554 11.6504C71.1767 12.4614 71.756 13.5631 71.8932 14.9555H68.3946C68.1355 13.9151 67.4038 13.3948 66.1995 13.3948C65.4373 13.3948 64.8427 13.6473 64.4159 14.1522C63.9891 14.6572 63.7757 15.3687 63.7757 16.2868C63.7757 17.2048 63.9891 17.9164 64.4159 18.4213C64.8427 18.9263 65.4373 19.1787 66.1995 19.1787C67.4038 19.1787 68.1355 18.689 68.3946 17.7097H71.8932C71.756 19.0716 71.1767 20.158 70.1554 20.9689C69.134 21.7647 67.8077 22.1625 66.1766 22.1625ZM83.7979 21.8182H79.5216L76.0235 17.0212V21.8182H72.5246V5.75175H76.0235V15.3687L79.6129 10.7553H83.7291L79.339 15.9884L83.7979 21.8182ZM93.9605 15.7129C93.9605 16.172 93.9301 16.6846 93.8685 17.2507H85.7281C85.7586 17.9699 86.0027 18.5284 86.4599 18.9263C86.9171 19.3241 87.5352 19.523 88.3126 19.523C89.3792 19.523 90.0653 19.1787 90.3703 18.4901H93.8004C93.6323 19.5765 93.0381 20.464 92.0165 21.1526C91.0108 21.8258 89.7755 22.1625 88.3126 22.1625C86.4375 22.1625 84.9587 21.6422 83.8762 20.6017C82.7937 19.5612 82.2525 18.1229 82.2525 16.2868C82.2525 14.4812 82.7937 13.0582 83.8762 12.0177C84.9587 10.9619 86.3991 10.434 88.1981 10.434C89.9052 10.434 91.2927 10.9236 92.36 11.9029C93.4265 12.8822 93.9605 14.1522 93.9605 15.7129ZM85.7281 15.0703H90.5073C90.4921 14.3358 90.2863 13.7697 89.89 13.3719C89.4936 12.974 88.922 12.7751 88.1749 12.7751C87.4279 12.7751 86.8338 12.9893 86.3918 13.4177C85.9651 13.8308 85.7434 14.3817 85.7281 15.0703ZM100.33 19.0869C100.818 19.0869 101.222 19.0639 101.542 19.018V21.8182C100.871 21.9406 100.094 22.0018 99.2099 22.0018C98.8135 22.0018 98.4628 21.9788 98.1578 21.9329C97.8528 21.8871 97.5101 21.7876 97.1289 21.6345C96.7478 21.4663 96.4355 21.2444 96.1914 20.9689C95.9472 20.6935 95.7342 20.2957 95.5509 19.7754C95.3835 19.2552 95.2995 18.6431 95.2995 17.9393V13.5325H93.562V10.7553H95.2995V7.47316H98.7983V10.7553H101.291V13.5325H98.7983V17.2048C98.7983 17.9546 98.9273 18.4596 99.1867 18.7196C99.4461 18.9645 99.8272 19.0869 100.33 19.0869ZM115.812 10.7553H119.288V26.4086H115.789V20.8542H115.812V20.2575C115.507 20.8083 115.035 21.2597 114.394 21.6116C113.77 21.9482 113.076 22.1166 112.313 22.1166C110.713 22.1166 109.448 21.5734 108.518 20.487C107.588 19.4006 107.123 18.0005 107.123 16.2868C107.123 14.6036 107.603 13.2112 108.564 12.1095C109.524 11.0078 110.79 10.4569 112.36 10.4569C113.137 10.4569 113.831 10.6252 114.44 10.9619C115.05 11.2985 115.507 11.7575 115.812 12.339V10.7553ZM113.32 19.2017C114.158 19.2017 114.806 18.9263 115.264 18.3753C115.721 17.8245 115.949 17.1283 115.949 16.2868C115.949 15.4604 115.721 14.7719 115.264 14.2211C114.806 13.6702 114.158 13.3948 113.32 13.3948C112.527 13.3948 111.887 13.6625 111.399 14.1981C110.927 14.7337 110.69 15.4299 110.69 16.2868C110.69 17.1436 110.927 17.8475 111.399 18.3983C111.887 18.9339 112.527 19.2017 113.32 19.2017Z" fill="#0D114F"/>
<path d="M105.899 21.3821C105.472 21.8258 104.939 22.0477 104.298 22.0477C103.659 22.0477 103.117 21.8258 102.675 21.3821C102.249 20.9383 102.035 20.4105 102.035 19.7984C102.035 19.1711 102.249 18.6431 102.675 18.2147C103.117 17.771 103.659 17.5491 104.298 17.5491C104.939 17.5491 105.472 17.771 105.899 18.2147C106.342 18.6431 106.563 19.1711 106.563 19.7984C106.563 20.4105 106.342 20.9383 105.899 21.3821Z" fill="url(#paint0_linear)"/>
<path d="M26.042 0H5.71653C2.55938 0 0 2.56899 0 5.73801V26.1398C0 29.3088 2.55938 31.8778 5.71653 31.8778H26.042C29.1991 31.8778 31.7585 29.3088 31.7585 26.1398V5.73801C31.7585 2.56899 29.1991 0 26.042 0Z" fill="url(#paint1_linear)"/>
<g filter="url(#filter0_di)">
<path d="M24.0971 23.5732H21.2646C21.1462 23.5732 21.0488 23.4803 21.0383 23.3619C21.0349 23.3244 21.0313 23.2881 21.0275 23.2528C20.8651 21.7671 19.2717 20.4911 17.7937 20.6719C16.7148 20.8038 15.8206 21.6213 14.7406 21.7437C14.0123 21.8263 13.3767 21.7887 12.6504 21.6457C12.0137 21.5206 11.3991 21.2914 10.8335 20.9725C9.50118 20.2214 8.7859 19.448 8.12272 18.2827C7.73893 17.6083 7.46505 16.8697 7.36542 16.0995C7.28297 15.462 7.28818 14.9003 7.35738 14.2817C7.46316 13.3367 7.76487 12.4169 8.25727 11.6044C8.94849 10.4638 9.69565 9.75462 10.9129 9.09069C11.4284 8.80953 11.9831 8.604 12.5562 8.47767C14.0073 8.15775 14.9468 8.25149 16.3574 8.69527C17.1422 8.94218 17.9947 9.47127 18.7196 10.1617C20.305 11.6714 20.4259 14.0406 20.466 16.2338C20.4697 16.4371 20.2845 16.5909 20.0852 16.5547C19.1061 16.377 18.4022 16.3627 17.4402 16.5162C17.1822 16.5574 16.97 16.2895 17.0396 16.0368C17.0698 15.9271 17.0935 15.8195 17.1112 15.7134C17.3956 14.0153 16.238 12.0771 14.5307 11.91C13.5621 11.8153 12.6031 12.2122 11.8926 13.0083C11.4686 13.4095 11.2341 14.0388 11.1601 14.71C10.9685 16.4489 12.3855 18.1305 14.1266 18.2137C14.4588 18.2296 14.7795 18.1811 15.1072 18.0696C16.14 17.7182 17.1468 17.193 18.2342 17.2752C21.5055 17.5225 23.8032 19.0028 24.4077 23.2159C24.4348 23.4047 24.2872 23.5732 24.0971 23.5732Z" fill="#FAFAFA"/>
</g>
<defs>
<filter id="filter0_di" x="5.67216" y="8.28825" width="20.3711" height="18.5496" filterUnits="userSpaceOnUse" color-interpolation-filters="sRGB">
<feFlood flood-opacity="0" result="BackgroundImageFix"/>
<feColorMatrix in="SourceAlpha" type="matrix" values="0 0 0 0 0 0 0 0 0 0 0 0 0 0 0 0 0 0 127 0"/>
<feOffset dy="1.63237"/>
<feGaussianBlur stdDeviation="0.816183"/>
<feColorMatrix type="matrix" values="0 0 0 0 0 0 0 0 0 0 0 0 0 0 0 0 0 0 0.07 0"/>
<feBlend mode="normal" in2="BackgroundImageFix" result="effect1_dropShadow"/>
<feBlend mode="normal" in="SourceGraphic" in2="effect1_dropShadow" result="shape"/>
<feColorMatrix in="SourceAlpha" type="matrix" values="0 0 0 0 0 0 0 0 0 0 0 0 0 0 0 0 0 0 127 0" result="hardAlpha"/>
<feOffset dy="1.63237"/>
<feGaussianBlur stdDeviation="1.02023"/>
<feComposite in2="hardAlpha" operator="arithmetic" k2="-1" k3="1"/>
<feColorMatrix type="matrix" values="0 0 0 0 0.219608 0 0 0 0 0.533333 0 0 0 0 1 0 0 0 0.13 0"/>
<feBlend mode="normal" in2="shape" result="effect2_innerShadow"/>
</filter>
<linearGradient id="paint0_linear" x1="137.063" y1="-42.9302" x2="128.596" y2="39.3635" gradientUnits="userSpaceOnUse">
<stop stop-color="#5498FF"/>
<stop offset="0.515625" stop-color="#428EFF"/>
<stop offset="1" stop-color="#297FFF"/>
</linearGradient>
<linearGradient id="paint1_linear" x1="38.0121" y1="-48.2238" x2="14.045" y2="35.2529" gradientUnits="userSpaceOnUse">
<stop stop-color="#5498FF"/>
<stop offset="0.515625" stop-color="#428EFF"/>
<stop offset="1" stop-color="#297FFF"/>
</linearGradient>
</defs>
</svg>
